<svg xmlns="http://www.w3.org/2000/svg" width="20.505" height="38.285" viewBox="0 0 20.505 38.285">
  <g id="facebook-f-brands" transform="translate(-22.89)" fill="#242220" opacity="0.9">
    <path d="M 35.86619186401367 37.68491744995117 L 29.57595252990723 37.68491744995117 L 29.57595252990723 21.5352668762207 L 29.57595252990723 20.93526649475098 L 28.97595405578613 20.93526649475098 L 23.49000358581543 20.93526649475098 L 23.49000358581543 15.20659637451172 L 28.97595405578613 15.20659637451172 L 29.57595252990723 15.20659637451172 L 29.57595252990723 14.60659599304199 L 29.57595252990723 9.325965881347656 C 29.57595252990723 6.583986282348633 30.37066268920898 4.339186191558838 31.87417411804199 2.834256172180176 C 33.33445358276367 1.372586011886597 35.4630241394043 0.599996030330658 38.02975463867188 0.599996030330658 C 39.92036056518555 0.599996030330658 41.8955192565918 0.8516216278076172 42.79487228393555 0.9824963212013245 L 42.79487228393555 5.767106056213379 L 40.37245178222656 5.767106056213379 C 37.55077362060547 5.767106056213379 35.86619186401367 7.390746116638184 35.86619186401367 10.11035633087158 L 35.86619186401367 14.60659599304199 L 35.86619186401367 15.20659637451172 L 36.46619415283203 15.20659637451172 L 42.41535949707031 15.20659637451172 L 41.53621292114258 20.93526649475098 L 36.46619415283203 20.93526649475098 L 35.86619186401367 20.93526649475098 L 35.86619186401367 21.5352668762207 L 35.86619186401367 37.68491744995117 Z" stroke="none"/>
    <path d="M 35.26619338989258 37.08491516113281 L 35.26619338989258 21.5352668762207 L 35.26619338989258 20.33526611328125 L 36.46619415283203 20.33526611328125 L 41.02127456665039 20.33526611328125 L 41.71626281738281 15.80659580230713 L 36.46619415283203 15.80659580230713 L 35.26619338989258 15.80659580230713 L 35.26619338989258 14.60659599304199 L 35.26619338989258 10.11035633087158 C 35.26619338989258 7.061245918273926 37.22279357910156 5.167106151580811 40.37245178222656 5.167106151580811 L 42.19487380981445 5.167106151580811 L 42.19487380981445 1.505016088485718 C 41.19377136230469 1.373266458511353 39.58200073242188 1.199996113777161 38.02975463867188 1.199996113777161 C 33.03855133056641 1.199996113777161 30.17595291137695 4.161796092987061 30.17595291137695 9.325965881347656 L 30.17595291137695 14.60659599304199 L 30.17595291137695 15.80659580230713 L 28.97595405578613 15.80659580230713 L 24.09000396728516 15.80659580230713 L 24.09000396728516 20.33526611328125 L 28.97595405578613 20.33526611328125 L 30.17595291137695 20.33526611328125 L 30.17595291137695 21.5352668762207 L 30.17595291137695 37.08491516113281 L 35.26619338989258 37.08491516113281 M 36.46619415283203 38.28491592407227 L 28.97595405578613 38.28491592407227 L 28.97595405578613 21.5352668762207 L 22.8900032043457 21.5352668762207 L 22.8900032043457 14.60659599304199 L 28.97595405578613 14.60659599304199 L 28.97595405578613 9.325965881347656 C 28.97595405578613 3.318526029586792 32.55470275878906 -3.945312528230716e-06 38.02975463867188 -3.945312528230716e-06 C 40.65211486816406 -3.945312528230716e-06 43.39487457275391 0.4680960476398468 43.39487457275391 0.4680960476398468 L 43.39487457275391 6.367105960845947 L 40.37245178222656 6.367105960845947 C 37.39490127563477 6.367105960845947 36.46619415283203 8.214805603027344 36.46619415283203 10.11035633087158 L 36.46619415283203 14.60659599304199 L 43.11446380615234 14.60659599304199 L 42.05116271972656 21.5352668762207 L 36.46619415283203 21.5352668762207 L 36.46619415283203 38.28491592407227 Z" stroke="none" fill="#242220"/>
  </g>
</svg>
