<svg xmlns="http://www.w3.org/2000/svg" width="35.951" height="35.958" viewBox="0 0 35.951 35.958">
  <path id="globe-solid" d="M24.395,19.019C23.344,12.546,20.864,8,17.979,8s-5.365,4.546-6.416,11.019Zm-13.376,6.96a45.44,45.44,0,0,0,.239,4.64H24.692a45.44,45.44,0,0,0,.239-4.64,45.44,45.44,0,0,0-.239-4.64H11.259A45.44,45.44,0,0,0,11.019,25.979Zm23.539-6.96A18.017,18.017,0,0,0,23.1,8.754c1.769,2.45,2.987,6.14,3.625,10.265ZM12.846,8.754A18,18,0,0,0,1.4,19.019h7.83c.631-4.125,1.849-7.815,3.618-10.265ZM35.335,21.339H27.019c.152,1.522.239,3.081.239,4.64s-.087,3.117-.239,4.64h8.308a17.824,17.824,0,0,0,.623-4.64A18.135,18.135,0,0,0,35.335,21.339ZM8.7,25.979c0-1.559.087-3.117.239-4.64H.623a17.576,17.576,0,0,0,0,9.279H8.932C8.787,29.1,8.7,27.538,8.7,25.979Zm2.864,6.96c1.051,6.474,3.531,11.019,6.416,11.019s5.365-4.546,6.416-11.019ZM23.112,43.2A18.034,18.034,0,0,0,34.566,32.939h-7.83C26.1,37.064,24.881,40.754,23.112,43.2ZM1.4,32.939A18.017,18.017,0,0,0,12.854,43.2c-1.769-2.45-2.987-6.14-3.625-10.265H1.4Z" transform="translate(0 -8)" fill="#242220" opacity="0.95"/>
</svg>
