<svg xmlns="http://www.w3.org/2000/svg" width="37.236" height="37.227" viewBox="0 0 37.236 37.227">
  <path id="instagram-brands" d="M18.547,40.894a9.545,9.545,0,1,0,9.545,9.545A9.529,9.529,0,0,0,18.547,40.894Zm0,15.75a6.205,6.205,0,1,1,6.205-6.205,6.217,6.217,0,0,1-6.205,6.205ZM30.708,40.5a2.226,2.226,0,1,1-2.226-2.226A2.221,2.221,0,0,1,30.708,40.5Zm6.322,2.259c-.141-2.982-.822-5.624-3.007-7.8s-4.818-2.858-7.8-3.007c-3.074-.174-12.286-.174-15.359,0-2.974.141-5.615.822-7.8,3S.205,39.773.056,42.755c-.174,3.074-.174,12.286,0,15.359.141,2.982.822,5.624,3.007,7.8s4.818,2.858,7.8,3.007c3.074.174,12.286.174,15.359,0,2.982-.141,5.624-.822,7.8-3.007s2.858-4.818,3.007-7.8C37.2,55.041,37.2,45.837,37.03,42.763ZM33.059,61.412a6.282,6.282,0,0,1-3.539,3.539c-2.451.972-8.265.748-10.973.748s-8.531.216-10.973-.748a6.282,6.282,0,0,1-3.539-3.539c-.972-2.451-.748-8.265-.748-10.973s-.216-8.531.748-10.973a6.282,6.282,0,0,1,3.539-3.539c2.451-.972,8.265-.748,10.973-.748s8.531-.216,10.973.748a6.282,6.282,0,0,1,3.539,3.539c.972,2.451.748,8.265.748,10.973S34.031,58.97,33.059,61.412Z" transform="translate(0.075 -31.825)" fill="#242220" opacity="0.9"/>
</svg>
