<svg xmlns="http://www.w3.org/2000/svg" width="138.818" height="22.158" viewBox="0 0 138.818 22.158">
  <g id="Group_124" data-name="Group 124" transform="translate(-872 -321.451)">
    <path id="iconmonstr-star-3" d="M11.649.587,15.21,7.934,23.3,9.051l-5.887,5.658,1.437,8.037-7.2-3.851-7.2,3.851,1.438-8.037L0,9.051,8.088,7.934Z" transform="translate(872 320.864)" fill="#cd9a49"/>
    <path id="iconmonstr-star-3-2" data-name="iconmonstr-star-3" d="M11.649.587,15.21,7.934,23.3,9.051l-5.887,5.658,1.437,8.037-7.2-3.851-7.2,3.851,1.438-8.037L0,9.051,8.088,7.934Z" transform="translate(901.123 320.864)" fill="#cd9a49"/>
    <path id="iconmonstr-star-3-3" data-name="iconmonstr-star-3" d="M11.649.587,15.21,7.934,23.3,9.051l-5.887,5.658,1.437,8.037-7.2-3.851-7.2,3.851,1.438-8.037L0,9.051,8.088,7.934Z" transform="translate(930.245 320.864)" fill="#cd9a49"/>
    <path id="iconmonstr-star-3-4" data-name="iconmonstr-star-3" d="M11.649.587,15.21,7.934,23.3,9.051l-5.887,5.658,1.437,8.037-7.2-3.851-7.2,3.851,1.438-8.037L0,9.051,8.088,7.934Z" transform="translate(958.397 320.864)" fill="#cd9a49"/>
    <path id="iconmonstr-star-3-5" data-name="iconmonstr-star-3" d="M11.649.587,15.21,7.934,23.3,9.051l-5.887,5.658,1.437,8.037-7.2-3.851-7.2,3.851,1.438-8.037L0,9.051,8.088,7.934Z" transform="translate(987.52 320.864)" fill="#a4a4a4" opacity="0.62"/>
  </g>
</svg>
