<svg id="Group_118" data-name="Group 118" xmlns="http://www.w3.org/2000/svg" width="14.901" height="14.901" viewBox="0 0 14.901 14.901">
  <g id="Path_67" data-name="Path 67" fill="none" opacity="0.95">
    <path d="M7.451,0A7.451,7.451,0,1,1,0,7.451,7.451,7.451,0,0,1,7.451,0Z" stroke="none"/>
    <path d="M 7.450532913208008 0.9000024795532227 C 3.838562965393066 0.9000024795532227 0.9000024795532227 3.838562965393066 0.9000024795532227 7.450532913208008 C 0.9000024795532227 11.06250286102295 3.838562965393066 14.00106334686279 7.450532913208008 14.00106334686279 C 11.06250286102295 14.00106334686279 14.00106334686279 11.06250286102295 14.00106334686279 7.450532913208008 C 14.00106334686279 3.838562965393066 11.06250286102295 0.9000024795532227 7.450532913208008 0.9000024795532227 M 7.450532913208008 2.86102294921875e-06 C 11.56534290313721 2.86102294921875e-06 14.90106296539307 3.335713386535645 14.90106296539307 7.450532913208008 C 14.90106296539307 11.56534290313721 11.56534290313721 14.90106296539307 7.450532913208008 14.90106296539307 C 3.335713386535645 14.90106296539307 2.86102294921875e-06 11.56534290313721 2.86102294921875e-06 7.450532913208008 C 2.86102294921875e-06 3.335713386535645 3.335713386535645 2.86102294921875e-06 7.450532913208008 2.86102294921875e-06 Z" stroke="none" fill="#8a8a88"/>
  </g>
  <g id="Group_117" data-name="Group 117" transform="translate(7.451 3.725)" opacity="0.92">
    <line id="Line_20" data-name="Line 20" y2="3.725" fill="none" stroke="#8b8b89" stroke-linecap="round" stroke-width="1.3"/>
    <path id="Path_66" data-name="Path 66" d="M0,0H0" transform="translate(0 6.209)" fill="none" stroke="#8b8b89" stroke-linecap="round" stroke-width="1.5"/>
  </g>
</svg>
