<svg xmlns="http://www.w3.org/2000/svg" width="44.735" height="34.794" viewBox="0 0 44.735 34.794">
  <path id="shopping-basket-solid" d="M44.735,46.288V47.53a1.864,1.864,0,0,1-1.864,1.864h-.621l-2.028,14.2a3.728,3.728,0,0,1-3.69,3.2H8.2a3.728,3.728,0,0,1-3.69-3.2l-2.028-14.2H1.864A1.864,1.864,0,0,1,0,47.53V46.288a1.864,1.864,0,0,1,1.864-1.864h5.23l8.293-11.4a2.485,2.485,0,0,1,4.02,2.924L13.24,44.424H31.495l-6.167-8.479a2.485,2.485,0,0,1,4.02-2.924l8.293,11.4h5.23A1.864,1.864,0,0,1,44.735,46.288Zm-20.5,13.669v-8.7a1.864,1.864,0,0,0-3.728,0v8.7a1.864,1.864,0,0,0,3.728,0Zm8.7,0v-8.7a1.864,1.864,0,0,0-3.728,0v8.7a1.864,1.864,0,0,0,3.728,0Zm-17.4,0v-8.7a1.864,1.864,0,0,0-3.728,0v8.7a1.864,1.864,0,0,0,3.728,0Z" transform="translate(0 -31.997)" fill="#fffefc" opacity="0.9"/>
</svg>
