<svg xmlns="http://www.w3.org/2000/svg" width="36.338" height="36.338" viewBox="0 0 36.338 36.338">
  <path id="user-circle-solid" d="M18.169,8A18.169,18.169,0,1,0,36.338,26.169,18.166,18.166,0,0,0,18.169,8Zm0,7.033a6.447,6.447,0,1,1-6.447,6.447A6.447,6.447,0,0,1,18.169,15.033Zm0,25.2a14.039,14.039,0,0,1-10.733-5,8.168,8.168,0,0,1,7.216-4.381,1.793,1.793,0,0,1,.52.081,9.7,9.7,0,0,0,3,.506,9.663,9.663,0,0,0,3-.506,1.793,1.793,0,0,1,.52-.081A8.168,8.168,0,0,1,28.9,35.238,14.039,14.039,0,0,1,18.169,40.235Z" transform="translate(0 -8)" fill="#fffefc" opacity="0.95"/>
</svg>
